<svg width="98" height="99" viewBox="0 0 98 99" fill="none" xmlns="http://www.w3.org/2000/svg">
<path fill-rule="evenodd" clip-rule="evenodd" d="M79.642 1.08439C78.86 0.30435 77.592 0.30435 76.81 1.08439L48.7762 29.0457L21.1893 1.53008C20.4073 0.750038 19.1393 0.750037 18.3573 1.53007L0.585567 19.2558C-0.196491 20.0359 -0.196491 21.3006 0.585567 22.0806L28.1724 49.5962L0.779294 76.9185C-0.0027642 77.6986 -0.00276602 78.9633 0.779293 79.7433L18.551 97.4691C19.333 98.2491 20.601 98.2491 21.3831 97.4691L48.7762 70.1467L76.6162 97.9147C77.3983 98.6948 78.6662 98.6948 79.4483 97.9147L97.22 80.189C98.0021 79.409 98.0021 78.1443 97.22 77.3642L69.38 49.5962L97.4137 21.6349C98.1958 20.8549 98.1958 19.5902 97.4137 18.8102L79.642 1.08439Z" fill="#B69EFF"/>
</svg>
