<svg width="40" height="40" viewBox="0 0 40 40" fill="none" xmlns="http://www.w3.org/2000/svg">
<g clip-path="url(#clip0_1409_465)">
<path d="M38.2442 6.93878V16.7347H28.4482" stroke="#0E172C" stroke-width="3.26531" stroke-linecap="round" stroke-linejoin="round"/>
<path d="M34.1462 24.8979C33.0849 27.9019 31.0761 30.4795 28.4224 32.2424C25.7687 34.0053 22.6139 34.858 19.4334 34.672C16.2529 34.4859 13.2191 33.2712 10.789 31.2109C8.35901 29.1506 6.66443 26.3563 5.96066 23.249C5.25689 20.1418 5.58207 16.8901 6.88718 13.9838C8.1923 11.0774 10.4067 8.67404 13.1966 7.13571C15.9865 5.59739 19.2008 5.00749 22.3551 5.4549C25.5094 5.90232 28.4329 7.36282 30.685 9.6163L38.2442 16.7347" stroke="#0E172C" stroke-width="3.26531" stroke-linecap="round" stroke-linejoin="round"/>
</g>
<defs>
<clipPath id="clip0_1409_465">
<rect width="39.1837" height="39.1837" fill="white" transform="translate(0.693359 0.408142)"/>
</clipPath>
</defs>
</svg>
